PathFileType	4	(X/Y/Z)	G:\マイドライブ\biomec\experimentalData\240725\static1.trc
DataRate	CameraRate	NumFrames	NumMarkers	Units	OrigDataRate	OrigDataStartFrame	OrigNumFrames
200.00	200.00	       4	52	mm	200.00	418	       834
Frame#	Time	handR			wrRI			wrRO			elbRI			elbRO			shRF			shRU			shRB			handL			wrLI			wrLO			elbLI			elbLO			shLF			shLU			shLB			toeR			baRI			baRO			heelR			anRI			anRO			knRI			knRO			troR			toeL			baLI			baLO			heelL			anLI			anLO			knLI			knLO			troL			head			earR			earL			clav			c7			ribR			ribL			xiph			ASISR			ASISL			PSISR			PSISL			t8			t11			L1			L3			LS			COX			
		X1	Y1	Z1	X2	Y2	Z2	X3	Y3	Z3	X4	Y4	Z4	X5	Y5	Z5	X6	Y6	Z6	X7	Y7	Z7	X8	Y8	Z8	X9	Y9	Z9	X10	Y10	Z10	X11	Y11	Z11	X12	Y12	Z12	X13	Y13	Z13	X14	Y14	Z14	X15	Y15	Z15	X16	Y16	Z16	X17	Y17	Z17	X18	Y18	Z18	X19	Y19	Z19	X20	Y20	Z20	X21	Y21	Z21	X22	Y22	Z22	X23	Y23	Z23	X24	Y24	Z24	X25	Y25	Z25	X26	Y26	Z26	X27	Y27	Z27	X28	Y28	Z28	X29	Y29	Z29	X30	Y30	Z30	X31	Y31	Z31	X32	Y32	Z32	X33	Y33	Z33	X34	Y34	Z34	X35	Y35	Z35	X36	Y36	Z36	X37	Y37	Z37	X38	Y38	Z38	X39	Y39	Z39	X40	Y40	Z40	X41	Y41	Z41	X42	Y42	Z42	X43	Y43	Z43	X44	Y44	Z44	X45	Y45	Z45	X46	Y46	Z46	X47	Y47	Z47	X48	Y48	Z48	X49	Y49	Z49	X50	Y50	Z50	X51	Y51	Z51	X52	Y52	Z52	

418	2.085	487.65790	293.79773	992.60681	488.59021	382.87256	1021.74689	529.42920	349.11856	1064.76733	570.89734	575.29279	1156.95520	512.75323	551.43927	1187.68164	605.01819	720.45032	1416.62439	543.17517	700.21375	1436.27332	499.64209	710.79181	1391.84473	504.40530	1464.66187	967.33008	500.13678	1375.89453	1003.81622	535.99017	1425.57092	1045.16479	547.09259	1197.48901	1150.58044	500.92688	1232.27893	1187.12476	601.83990	1046.49585	1406.58569	543.30762	1069.79382	1427.23486	492.53372	1044.23792	1380.32715	725.75677	730.32819	51.34494	643.46411	772.72321	48.13168	624.77850	651.86719	43.93534	438.72342	729.44562	40.25318	521.71564	770.86743	112.53406	506.76575	677.41772	102.21364	528.28363	796.83093	468.23093	549.51215	692.76752	476.48843	596.43420	709.75049	868.68335	725.74438	1024.89099	52.98129	649.92462	978.30579	50.74533	627.07813	1092.29480	47.37712	438.05545	1031.78210	38.12139	527.63080	985.79956	130.17380	504.10504	1073.39111	104.84166	517.93774	960.45508	471.60678	524.81195	1068.03345	483.79990	572.69812	1054.25415	853.63397	529.79071	885.02087	1702.97607	636.20380	802.24646	1568.18018	641.24896	960.23175	1569.55933	650.09082	887.29352	1394.98621	528.87366	888.89880	1471.17639	635.35461	778.67358	1095.64612	630.42419	1000.82733	1093.78857	680.89020	887.62830	1236.13269	657.06708	780.11572	950.38184	644.47644	1001.78680	958.51532	483.08560	820.43225	999.35980	479.64114	944.06329	1000.73077	465.02780	888.34192	1261.55090	480.41620	888.68048	1137.70203	491.05444	890.61237	1080.40723	485.94492	886.00684	1034.72778	470.19400	883.48737	996.28943	439.73077	880.83643	894.26886	
419	2.090	487.56464	293.80496	992.53717	488.50183	382.91168	1021.69165	529.32532	349.12036	1064.70215	570.83612	575.28723	1156.92908	512.67047	551.46014	1187.65161	604.94794	720.42255	1416.60791	543.11780	700.18500	1436.26074	499.58832	710.76514	1391.82617	504.35455	1464.61414	967.32935	500.11505	1375.82642	1003.83746	535.94861	1425.55249	1045.16016	547.05743	1197.45215	1150.58679	500.88736	1232.25549	1187.13464	601.82983	1046.47974	1406.60461	543.25458	1069.75476	1427.24268	492.50781	1044.20959	1380.32874	725.74982	730.31335	51.35070	643.45123	772.73077	48.14500	624.76093	651.85876	43.95280	438.70474	729.44763	40.23856	521.75665	770.87366	112.53651	506.74313	677.43030	102.21892	528.24921	796.83508	468.23932	549.50629	692.73096	476.49216	596.37714	709.74548	868.68597	725.72748	1024.89856	52.99186	649.91736	978.28888	50.75191	627.16791	1092.23950	47.31423	438.07910	1031.78149	38.10715	527.63074	985.80389	130.16959	504.08893	1073.39368	104.86539	517.94214	960.45050	471.61319	524.77423	1068.03540	483.81281	572.68500	1054.24316	853.65894	529.75140	884.98529	1702.98376	636.15698	802.21814	1568.17419	641.15814	960.18872	1569.58691	650.02173	887.28723	1394.96741	528.83636	888.87970	1471.19116	635.28827	778.66925	1095.62683	630.38470	1000.80914	1093.79797	680.84607	887.64307	1236.13831	657.02814	780.13629	950.39417	644.43713	1001.78729	958.52539	483.03320	820.42462	999.35986	479.60291	944.04395	1000.73206	464.94376	888.32458	1261.57251	480.33536	888.66284	1137.69775	490.99832	890.60077	1080.40613	485.89713	885.99042	1034.73950	470.14719	883.49890	996.29187	439.68314	880.84058	894.25531	
420	2.095	487.46674	293.81024	992.44916	488.40314	382.92096	1021.63367	529.22711	349.11960	1064.63025	570.76172	575.28473	1156.90430	512.58051	551.46045	1187.60229	604.93884	721.31476	1416.74438	543.04730	700.26758	1436.33655	499.52567	710.75140	1391.80505	504.26331	1464.57336	967.26190	500.09457	1375.78796	1003.82458	535.93292	1425.50110	1045.16101	547.02002	1197.43359	1150.60962	500.89139	1232.21912	1187.14880	601.83081	1046.45154	1406.62500	543.24359	1069.72119	1427.25403	492.46954	1044.18665	1380.32825	725.75189	730.32703	51.34219	643.46637	772.71710	48.14839	624.77081	651.86127	43.94902	438.70953	729.46796	40.23906	521.71527	770.86108	112.51575	506.76382	677.42303	102.21726	528.25031	796.81964	468.23740	549.49054	692.75226	476.48761	596.34979	709.74158	868.68781	725.73132	1024.88428	52.99499	650.11475	978.08221	51.00407	627.12238	1092.24731	47.33602	438.07422	1031.77637	38.09047	527.96844	985.73676	130.58368	504.08804	1073.39417	104.84983	517.93127	960.47003	471.60919	524.77863	1068.04639	483.82098	572.66406	1054.22986	853.65912	529.69391	884.93939	1702.98352	636.08813	802.15430	1568.18030	641.10803	960.17450	1569.54297	649.97949	887.22961	1394.96216	528.80615	888.82806	1471.18689	635.24402	778.66437	1095.61841	630.32452	1000.79242	1093.79883	680.79388	887.60156	1236.11304	656.98230	780.15118	950.38995	644.37061	1001.78717	958.52173	482.99374	820.43536	999.35681	479.54401	944.03772	1000.75024	464.89038	888.30768	1261.57983	480.33530	888.64441	1137.69910	490.95541	890.58813	1080.40576	485.85376	886.00568	1034.73279	470.13095	883.50171	996.29321	439.66690	880.83215	894.24249	
421	2.100	487.39984	293.80432	992.35760	488.32910	382.94485	1021.59344	529.11871	349.11200	1064.56128	570.69531	575.28448	1156.85693	512.49792	551.47632	1187.54797	604.82117	720.35687	1416.56238	542.99646	700.13171	1436.21436	499.47681	710.71631	1391.77197	504.23715	1464.53027	967.32208	500.06018	1375.73645	1003.83081	535.88971	1425.46777	1045.15393	547.00470	1197.40637	1150.60510	500.82068	1232.18713	1187.16614	601.81323	1046.43726	1406.63757	543.22382	1069.67590	1427.23657	492.46100	1044.15991	1380.32007	725.74420	730.32495	51.34618	643.46161	772.72925	48.14394	624.76025	651.85614	43.95010	438.70996	729.43457	40.22565	521.74011	770.85419	112.48815	506.75647	677.41602	102.21773	528.23035	796.82794	468.24478	549.47858	692.71234	476.48257	596.31647	709.74396	868.68573	725.73633	1024.89148	52.99252	649.90002	978.29950	50.76220	627.08557	1092.28601	47.36809	438.06317	1031.78528	38.09624	527.60260	985.80225	130.17517	504.10492	1073.38574	104.85490	517.92938	960.47040	471.60580	524.76886	1068.05103	483.82587	572.63312	1054.24561	853.66754	529.64758	884.89862	1702.97766	636.04706	802.10608	1568.18298	641.06146	960.16003	1569.55298	649.94647	887.21350	1394.95227	528.77075	888.79114	1471.19739	635.20892	778.67487	1095.59851	630.27203	1000.77905	1093.81445	680.75586	887.56433	1236.10291	656.95160	780.16718	950.40601	644.33685	1001.77600	958.52124	482.94724	820.41595	999.34729	479.52295	944.02649	1000.73260	464.85641	888.28259	1261.58606	480.29001	888.61761	1137.67529	490.91513	890.58691	1080.39648	485.80246	885.98932	1034.75464	470.09641	883.49316	996.28766	439.62827	880.84735	894.24335	
